HIERARCHY
ROOT Hips
{
   OFFSET 0.00000 0.00000 0.00000
   CHANNELS 6 Xposition Yposition Zposition Zrotation Xrotation Yrotation
   JOINT Spine
   {
      OFFSET 0.000000 11.890501 0.000000
      CHANNELS 3 Zrotation Xrotation Yrotation
      JOINT Spine1
      {
         OFFSET -0.000000 25.657401 0.127660
         CHANNELS 3 Zrotation Xrotation Yrotation
         JOINT HEad
         {
            OFFSET 0.000000 8.734161 0.011340
            CHANNELS 3 Zrotation Xrotation Yrotation
            End Site
            {
               OFFSET -0.290000 12.774200 2.513950
            }
         }
         JOINT LeftShoulder1
         {
            OFFSET 8.990000 -0.362250 -0.220000
            CHANNELS 3 Zrotation Xrotation Yrotation
            JOINT LeftArm
            {
               OFFSET 10.282700 -0.003380 0.322120
               CHANNELS 3 Zrotation Xrotation Yrotation
               JOINT LeftForeArm
               {
                  OFFSET 32.766900 0.099140 -1.424340
                  CHANNELS 3 Zrotation Xrotation Yrotation
                  JOINT LeftHand
                  {
                     OFFSET 27.564301 0.085360 1.022160
                     CHANNELS 3 Zrotation Xrotation Yrotation
                     End Site
                     {
                        OFFSET 16.744301 -0.600000 1.502910
                     }
                  }
               }
            }
         }
         JOINT RightShoulder
         {
            OFFSET -8.990000 -0.362250 -0.220000
            CHANNELS 3 Zrotation Xrotation Yrotation
            JOINT RightArm
            {
               OFFSET -10.282700 -0.003380 0.322120
               CHANNELS 3 Zrotation Xrotation Yrotation
               JOINT RightForeArm
               {
                  OFFSET -32.897098 0.099140 -1.424340
                  CHANNELS 3 Zrotation Xrotation Yrotation
                  JOINT RightHand
                  {
                     OFFSET -27.492101 0.085360 1.022160
                     CHANNELS 3 Zrotation Xrotation Yrotation
                     End Site
                     {
                        OFFSET -16.631201 -0.600000 1.502910
                     }
                  }
               }
            }
         }
      }
   }
   JOINT LeftUpLeg
   {
      OFFSET 8.945800 -8.667070 0.101650
      CHANNELS 3 Zrotation Xrotation Yrotation
      JOINT LeftLeg
      {
         OFFSET 0.000000 -44.422697 1.372700
         CHANNELS 3 Zrotation Xrotation Yrotation
         JOINT LeftFoot
         {
            OFFSET -0.253550 -42.092399 -1.460590
            CHANNELS 3 Zrotation Xrotation Yrotation
            JOINT LeftToes
            {
               OFFSET -0.040000 -4.415090 8.499099
               CHANNELS 3 Zrotation Xrotation Yrotation
               End Site
               {
                  OFFSET 0.080000 -0.047450 9.779790
               }
            }
         }
      }
   }
   JOINT RightUpLeg
   {
      OFFSET -8.945800 -8.667070 0.101650
      CHANNELS 3 Zrotation Xrotation Yrotation
      JOINT RightLeg
      {
         OFFSET 0.000000 -44.422697 1.372700
         CHANNELS 3 Zrotation Xrotation Yrotation
         JOINT RightFoot
         {
            OFFSET 0.253550 -42.092399 -1.460590
            CHANNELS 3 Zrotation Xrotation Yrotation
            JOINT RightToes
            {
               OFFSET 0.040000 -4.415090 8.499099
               CHANNELS 3 Zrotation Xrotation Yrotation
               End Site
               {
                  OFFSET -0.080000 -0.137450 9.779790
               }
            }
         }
      }
   }
}
MOTION
Frames: 9
Frame Time: 0.016670
-61.084570 92.056264 -124.715241 -7.777105 -12.946477 -14.947681 -9.891786 23.199719 98.956177 24.092609 6.816690 -83.349468 6.524683 40.058844 4.795679 -13.852554 6.530472 -12.080460 -43.061447 -43.378391 -76.997706 383.022474 18.916342 -64.018113 -31.202012 -35.117530 -65.697472 -9.867999 51.920260 49.767357 92.795053 134.901386 214.904840 12.888881 223.126680 61.471928 -9.480630 -17.880580 38.718997 23.321652 -17.213689 -10.982568 -17.614237 16.402342 107.387185 -53.828929 58.601596 17.097777 31.830860 -3.627655 -61.936640 -21.174273 6.305334 16.566892 23.269898 17.192382 4.724735 -45.823425 -6.725947 27.556583 23.927145 -24.185707 -60.159350
-60.037464 92.303198 -124.425314 -9.174729 -11.637847 -20.926422 -9.034311 23.102227 92.848000 23.721568 7.472825 -81.631853 6.769129 34.497185 13.406170 -15.947151 6.718623 -4.509042 -42.870024 -43.248041 -78.993549 376.910356 18.137489 -58.145025 -29.971574 -34.143812 -63.971934 -15.769163 52.100830 63.216830 99.619129 134.243598 211.586365 4.378120 224.493455 60.638235 -15.543644 -13.125240 25.035531 25.491921 -16.090136 -14.886860 -19.867991 16.761277 112.508344 -56.365108 58.082938 16.578228 31.205123 -6.397734 -59.929876 -21.083047 4.039619 13.567934 21.786662 16.986464 8.358881 -46.096199 -6.541828 28.196616 25.319347 -22.457399 -56.674413
-58.768248 92.466067 -123.910873 -10.816961 -10.604918 -27.743118 -8.779691 24.355743 85.440175 25.313789 12.016665 -79.007967 6.465367 28.902833 22.322971 -9.856010 8.930712 -9.082523 -57.918488 -53.269451 -91.041183 375.385612 17.246938 -56.004174 -27.963903 -34.363286 -60.940833 -15.473029 56.470030 68.235038 98.295855 137.680836 208.366791 -0.258238 232.588104 62.583090 -9.227689 -17.954592 34.297225 27.673662 -14.361403 -19.770061 -22.441544 16.301443 118.521595 -57.736962 57.484771 16.320074 30.581930 -8.892002 -58.718952 -20.710245 1.859949 10.286589 19.766048 16.897968 11.209625 -46.192976 -6.159147 29.431552 27.008708 -20.852532 -51.184447
-57.324137 92.544087 -123.023336 -12.450181 -9.185006 -35.620164 -8.236355 23.764549 76.912151 23.876417 12.765851 -77.139405 5.298444 23.833243 31.442752 -8.005254 8.611597 -4.057218 -46.690097 -56.939964 -77.469816 380.787527 9.960530 -49.609744 -41.252191 -32.980125 -38.879684 -22.983740 54.711564 79.908097 102.996835 135.837791 206.360560 -2.453020 238.673201 65.078855 -12.277906 -19.376338 38.509119 30.053034 -11.940941 -24.448208 -25.027702 15.480076 123.883430 -58.609034 56.743292 15.811212 29.981464 -11.146356 -58.143365 -19.967520 -0.402306 6.218847 17.998015 16.952226 15.378991 -46.096926 -5.231353 31.259010 20.855896 -17.647274 -65.155647
-55.769214 92.427615 -121.916063 -14.810239 -8.558846 -42.658670 -4.802373 23.598114 71.508454 24.182824 18.030489 -72.267260 3.419178 20.032991 39.372270 -0.498642 12.935764 -0.855475 -28.930619 -53.448112 -61.251217 381.576468 4.070736 -41.033280 -37.551198 -58.334924 -52.578263 -22.246809 59.200009 78.114667 100.276944 141.469719 205.427679 -3.067430 245.844763 68.597236 -9.342504 -20.873335 45.605996 32.394686 -7.896560 -28.074859 -27.694740 13.113058 128.820947 -59.213219 55.707313 15.047173 29.211486 -13.377118 -57.862583 -19.395642 -1.267526 2.546009 16.873747 17.923161 19.239755 -45.556805 -4.449809 32.934571 24.051683 -17.244004 -52.543457
-54.203042 92.220448 -120.532787 -16.315563 -4.636608 -51.600939 -2.818732 22.939329 64.812587 24.141584 21.425576 -68.495876 1.128659 18.549025 45.972084 4.441591 15.711798 -11.501981 -26.992938 -67.832856 -48.367025 377.801532 -6.816495 -30.281060 -54.028080 -54.781713 -32.498727 -29.167961 55.666947 82.491343 102.312279 143.895161 203.451555 -2.369019 248.558753 69.497209 -11.476999 -20.651154 45.998175 35.645610 -4.035301 -30.710402 -28.691084 9.925653 133.832434 -59.764463 53.957456 14.127761 28.072836 -15.728452 -57.524263 -17.307091 -3.859433 -1.363509 16.645197 16.694248 23.311863 -44.739491 -4.260765 34.911983 21.554822 -16.659788 -52.400419
-52.724175 91.863745 -119.184521 -18.711689 -5.831106 -58.765240 -2.951874 21.353232 61.135002 25.029187 22.036712 -65.855243 -1.721594 18.163806 51.254696 0.518529 17.347320 -15.685338 -6.998251 -66.810718 -25.459839 367.223645 -17.276151 -24.705786 -45.788673 -47.746717 -41.347079 -36.732187 52.699598 86.490993 102.916348 145.046403 201.228001 -0.699116 251.276212 69.739927 -9.337550 -20.405935 48.019638 35.417099 1.877499 -33.809259 -30.802046 7.553503 137.796758 -59.565397 52.824478 13.496878 27.370815 -17.667751 -57.476158 -18.019048 -3.050411 -4.201355 15.385413 17.568348 26.820157 -43.688786 -4.141105 36.489036 20.794769 -16.561549 -47.418520
-51.472530 91.487797 -117.905234 -19.190168 -5.534696 -61.761924 -1.287093 19.756566 60.260020 25.216985 22.835638 -66.584570 -3.812705 17.147846 55.217421 -0.235168 13.662452 -19.827126 4.978983 -68.021970 -12.987712 360.142979 -31.890515 -19.030346 -58.584780 -58.740474 -28.386936 -41.144609 54.926370 89.915779 104.951150 147.454727 199.985576 1.485481 256.498438 73.182800 -9.881264 -19.217154 51.672130 34.912720 3.517571 -35.581881 -31.568219 5.890433 140.354049 -58.970344 51.893756 12.922952 27.094920 -19.101579 -57.601519 -18.902417 -3.429210 -7.686434 14.621384 17.365114 29.565573 -42.471404 -4.300495 37.585097 18.824657 -16.328716 -45.927944
-50.416173 91.195544 -116.641558 -18.066943 -4.814813 -63.258364 -0.244195 17.945038 61.391093 25.344877 21.212978 -68.705139 -6.338623 14.416859 58.222383 3.381649 14.192235 -24.976518 13.207089 -63.545444 -6.368882 353.623974 -45.915107 -12.583442 -43.787113 -48.816745 -26.349845 -45.685056 56.428281 92.141035 104.664542 147.019576 197.337812 3.764954 262.433462 75.964954 -8.464530 -18.371814 54.909902 33.944657 3.114633 -36.101190 -31.888514 4.845489 141.628234 -58.367197 51.033019 12.064949 27.029618 -20.207244 -58.025852 -19.889547 -4.743841 -11.307274 13.778568 16.719511 31.646790 -41.087457 -4.371866 38.350327 17.472100 -15.923413 -43.710892
